<?xml version="1.0" standalone="no"?>
<!DOCTYPE svg PUBLIC "-//W3C//DTD SVG 20010904//EN"
 "http://www.w3.org/TR/2001/REC-SVG-20010904/DTD/svg10.dtd">
<svg version="1.0" xmlns="http://www.w3.org/2000/svg"
 width="300.000000pt" height="299.000000pt" viewBox="0 0 300.000000 299.000000"
 preserveAspectRatio="xMidYMid meet">

<g transform="translate(0.000000,299.000000) scale(0.100000,-0.100000)"
fill="#000000" stroke="none">
<path d="M1275 2966 c-395 -65 -737 -272 -973 -589 -325 -434 -382 -1030 -147
-1522 202 -423 582 -718 1055 -821 121 -27 458 -27 580 -1 644 137 1115 649
1191 1292 15 130 6 342 -20 468 -122 583 -570 1031 -1156 1159 -117 25 -413
33 -530 14z m38 -778 c3 -7 76 -182 162 -388 87 -206 160 -381 163 -388 3 -10
-2 -13 -19 -10 -21 3 -41 43 -178 376 -85 205 -157 370 -160 366 -3 -3 -74
-170 -157 -372 -127 -307 -155 -368 -173 -370 -11 -2 -21 0 -21 3 0 7 318 772
327 788 7 12 50 8 56 -5z m164 -110 c28 -68 97 -234 153 -370 56 -137 105
-246 109 -244 3 2 74 169 156 370 137 334 152 366 174 366 15 0 21 -5 18 -12
-3 -7 -76 -182 -162 -388 -86 -206 -159 -381 -162 -387 -3 -7 -13 -13 -23 -13
-10 0 -22 6 -27 13 -5 6 -62 138 -126 292 -63 154 -136 328 -161 388 -44 104
-44 107 -22 107 19 0 29 -17 73 -122z m-639 -1078 c45 -107 84 -195 87 -195 4
0 44 90 89 200 45 110 87 198 92 195 12 -6 16 7 -78 -220 -89 -213 -96 -226
-112 -210 -16 16 -184 424 -179 433 9 16 21 -7 101 -203z m487 -213 c67 -1
109 -6 108 -12 -2 -6 -50 -10 -120 -10 l-118 0 -3 210 c-1 115 1 216 5 225 5
8 10 -81 13 -198 l5 -213 110 -2z m413 298 c22 -55 61 -148 86 -207 26 -62 41
-110 35 -114 -5 -3 -22 22 -36 55 l-27 62 -124 -3 -124 -3 -20 -50 c-21 -53
-34 -72 -43 -63 -6 6 160 413 178 436 16 20 28 1 75 -113z m463 80 c62 -44 84
-93 84 -187 0 -69 -3 -81 -30 -120 -46 -66 -103 -90 -218 -92 l-92 -1 -3 210
c-1 115 -1 214 2 220 2 6 41 8 109 5 97 -5 109 -8 148 -35z"/>
<path d="M1663 1154 c-3 -10 -28 -70 -55 -133 -26 -63 -46 -116 -44 -118 2 -2
53 -2 114 -1 l111 3 -54 129 c-30 70 -56 130 -59 133 -3 3 -9 -3 -13 -13z"/>
<path d="M1962 983 l3 -196 85 2 c53 2 98 8 119 18 74 36 116 141 92 232 -27
103 -86 141 -216 141 l-85 0 2 -197z"/>
</g>
</svg>
