<?xml version="1.0" standalone="no"?>
<!DOCTYPE svg PUBLIC "-//W3C//DTD SVG 20010904//EN"
 "http://www.w3.org/TR/2001/REC-SVG-20010904/DTD/svg10.dtd">
<svg version="1.0" xmlns="http://www.w3.org/2000/svg"
 width="300.000000pt" height="297.000000pt" viewBox="0 0 300.000000 297.000000"
 preserveAspectRatio="xMidYMid meet">

<g transform="translate(0.000000,297.000000) scale(0.100000,-0.100000)"
fill="#000000" stroke="none">
<path d="M1197 2949 c-288 -61 -535 -197 -747 -409 -221 -220 -360 -482 -416
-785 -28 -146 -25 -413 4 -552 64 -297 192 -534 407 -749 220 -220 458 -350
765 -415 139 -30 416 -32 560 -6 606 113 1074 580 1196 1192 25 124 25 404 1
530 -44 222 -146 458 -271 625 -83 111 -249 270 -358 343 -165 111 -350 189
-538 227 -136 28 -471 27 -603 -1z m604 -58 c382 -88 703 -313 911 -637 80
-125 160 -327 194 -489 26 -124 26 -412 1 -538 -55 -275 -180 -514 -370 -714
-116 -121 -233 -209 -377 -282 -230 -118 -391 -156 -660 -156 -205 0 -309 17
-479 77 -474 167 -828 577 -928 1075 -25 125 -25 415 0 533 128 603 588 1046
1187 1145 122 20 406 13 521 -14z"/>
<path d="M1244 2133 c-14 -32 -81 -191 -149 -353 -68 -162 -131 -312 -139
-332 -16 -37 -16 -38 6 -38 21 0 38 38 173 365 83 200 153 361 156 357 5 -5
258 -612 296 -709 5 -14 43 -18 43 -5 0 4 -72 178 -159 387 -181 432 -181 432
-227 328z"/>
<path d="M1390 2178 c1 -7 72 -182 158 -388 143 -341 160 -375 182 -378 24 -3
32 15 185 379 88 210 162 386 164 391 2 6 -7 8 -20 6 -20 -3 -41 -47 -173
-365 -83 -200 -154 -363 -157 -363 -4 0 -9 8 -11 18 -3 9 -70 173 -149 365
-113 273 -147 347 -161 347 -10 0 -18 -6 -18 -12z"/>
<path d="M753 1198 c58 -152 175 -418 183 -418 7 0 14 6 17 13 25 61 170 404
174 410 2 4 -2 7 -9 7 -8 0 -46 -79 -92 -192 -44 -106 -82 -196 -85 -200 -4
-5 -43 81 -88 189 -44 109 -87 199 -94 202 -7 2 -10 -2 -6 -11z"/>
<path d="M1200 995 l0 -215 120 0 c73 0 120 4 120 10 0 6 -43 10 -110 10
l-110 0 0 205 c0 130 -4 205 -10 205 -6 0 -10 -78 -10 -215z"/>
<path d="M1657 1203 c-4 -6 -148 -347 -174 -410 -3 -7 0 -13 6 -13 6 0 23 27
38 60 l26 61 119 -3 120 -3 23 -55 c13 -30 28 -56 35 -58 7 -3 11 0 9 6 -2 6
-42 103 -89 216 -76 184 -98 223 -113 199z m70 -150 c29 -69 51 -128 49 -130
-2 -2 -51 -2 -109 -1 l-105 3 52 127 c28 70 53 128 56 128 3 0 29 -57 57 -127z"/>
<path d="M1930 996 l0 -216 78 0 c131 0 198 31 240 111 50 98 21 224 -66 284
-40 27 -51 30 -148 33 l-104 4 0 -216z m213 180 c39 -16 82 -61 96 -99 17 -45
13 -133 -8 -175 -38 -74 -94 -102 -206 -102 l-75 0 0 195 0 195 80 0 c46 0 94
-6 113 -14z"/>
</g>
</svg>
